<svg xmlns="http://www.w3.org/2000/svg" viewBox="0 0 128 128"><path fill="#F7DF1E" d="M1.408 1.408h125.184v125.185H1.408z"/><path d="M89.194 107.63c2.321 3.785 5.331 6.574 10.662 6.574 4.472 0 7.326-2.229 7.326-5.331 0-3.706-2.937-5.018-7.9-7.182l-2.714-1.165c-7.84-3.337-13.04-7.533-13.04-16.388 0-8.15 6.203-14.371 15.892-14.371 6.896 0 11.849 2.404 15.399 8.67l-8.416 5.402c-1.853-3.337-3.852-4.651-6.983-4.651-3.178 0-5.204 2.026-5.204 4.651 0 3.254 2.026 4.566 6.714 6.574l2.714 1.165c9.219 3.938 14.419 7.994 14.419 17.114 0 9.808-7.698 15.162-18.033 15.162-10.096 0-16.014-4.822-19.094-11.126zm-38.64.954c1.702 3.014 3.254 5.57 6.983 5.57 3.57 0 5.826-1.402 5.826-6.837V55.468h11.254v52.086c0 11.675-6.838 16.994-16.827 16.994-9.026 0-14.271-4.651-16.926-10.292z"/></svg>